<svg width="160" height="78" viewBox="0 0 160 78" fill="none" xmlns="http://www.w3.org/2000/svg">
<path d="M11.5672 58.061L11.5515 50.7785L7.94168 56.8054H7.03137L3.42152 50.8727V58.061H1.47533V47.0745H3.1547L7.51792 54.357L11.8027 47.0745H13.482L13.4977 58.061H11.5672ZM34.5929 58.061L32.3485 54.8436C32.2544 54.854 32.1131 54.8592 31.9248 54.8592H29.445V58.061H27.4046V47.0745H31.9248C32.8769 47.0745 33.7036 47.2315 34.4046 47.5454C35.1161 47.8593 35.6602 48.3092 36.0369 48.8951C36.4136 49.4811 36.6019 50.1769 36.6019 50.9826C36.6019 51.8092 36.3979 52.5207 35.9898 53.1171C35.5922 53.7135 35.0167 54.1582 34.2633 54.4512L36.7902 58.061H34.5929ZM34.5459 50.9826C34.5459 50.2815 34.3157 49.7427 33.8553 49.366C33.3949 48.9893 32.72 48.801 31.8306 48.801H29.445V53.1799H31.8306C32.72 53.1799 33.3949 52.9915 33.8553 52.6149C34.3157 52.2277 34.5459 51.6836 34.5459 50.9826ZM49.824 47.0745H51.8643V58.061H49.824V47.0745ZM68.004 48.801H64.3627V47.0745H73.6856V48.801H70.0443V58.061H68.004V48.801ZM88.5381 48.801H84.8968V47.0745H94.2197V48.801H90.5784V58.061H88.5381V48.801ZM106.69 47.0745H108.731V58.061H106.69V47.0745ZM126.424 53.4624L124.682 55.2516V58.061H122.642V47.0745H124.682V52.709L130.112 47.0745H132.404L127.79 51.9871L132.686 58.061H130.301L126.424 53.4624Z" fill="black"/>
<g clip-path="url(#clip0_221_714)">
<path d="M154.097 0H159.804L154.097 9.98775V0Z" fill="black"/>
<path d="M11.4145 0H1.42676V32.8169H11.4145V0Z" fill="black"/>
<path d="M154.097 0H7.13428V9.98775H154.097V0Z" fill="black"/>
<path d="M139.829 22.8291H8.56104V32.8168H139.829V22.8291Z" fill="black"/>
<path d="M141.255 32.8168L146.962 22.8291H136.975L137.017 32.8168H141.255Z" fill="black"/>
</g>
<defs>
<clipPath id="clip0_221_714">
<rect width="158.377" height="32.8169" fill="white" transform="translate(1.42676)"/>
</clipPath>
</defs>
</svg>
